<svg xmlns="http://www.w3.org/2000/svg" width="97" height="37"><path d="M0 0 C0.66 0 1.32 0 2 0 C2.15855469 0.66386719 2.31710938 1.32773438 2.48046875 2.01171875 C3.94446507 7.55225732 5.06615445 11.64078601 10 15 C13.30418664 15.9578087 16.59114844 16.55651834 20 17 C20 17.99 20 18.98 20 20 C19.25234375 20.17015625 18.5046875 20.3403125 17.734375 20.515625 C16.74953125 20.75796875 15.7646875 21.0003125 14.75 21.25 C13.77546875 21.48203125 12.8009375 21.7140625 11.796875 21.953125 C8.57853978 23.15775326 7.12081161 24.31111385 5 27 C3.89790667 29.55627525 3.89790667 29.55627525 3.25 32.25 C2.88648437 33.58804688 2.88648437 33.58804688 2.515625 34.953125 C2.34546875 35.62859375 2.1753125 36.3040625 2 37 C1.34 37 0.68 37 0 37 C-0.15855469 36.25234375 -0.31710938 35.5046875 -0.48046875 34.734375 C-1.88475918 28.51861924 -1.88475918 28.51861924 -5.4375 23.375 C-9.78849013 21.04032237 -13.50609107 20.86135148 -18.42089844 20.79467773 C-20.37246857 20.7647599 -20.37246857 20.7647599 -22.36346436 20.73423767 C-23.7787667 20.71725582 -25.19407028 20.70037693 -26.609375 20.68359375 C-28.06097999 20.66301245 -29.51257914 20.64201567 -30.96417236 20.62062073 C-34.77812972 20.56552149 -38.59214007 20.51605885 -42.40618896 20.46777344 C-46.30078834 20.41746951 -50.19531109 20.36182993 -54.08984375 20.30664062 C-61.72649755 20.19920772 -69.36321521 20.09772999 -77 20 C-77 19.01 -77 18.02 -77 17 C-76.18647064 16.99413376 -75.37294128 16.98826752 -74.53475952 16.98222351 C-66.85459591 16.92423384 -59.17475439 16.85212155 -51.49487877 16.76428509 C-47.54689972 16.71962556 -43.59902282 16.68035996 -39.65087891 16.65356445 C-35.83813174 16.62748701 -32.02577855 16.58705389 -28.21327591 16.53681374 C-26.76133768 16.5201749 -25.30933134 16.50864206 -23.85731125 16.50238609 C-21.81770629 16.49271195 -19.77910243 16.46461634 -17.73974609 16.43237305 C-16.58058685 16.42126999 -15.42142761 16.41016693 -14.22714233 16.39872742 C-9.86321163 15.85954487 -6.48161831 14.37578843 -3.25 11.375 C-1.35853506 7.78121662 -0.72166179 3.97338489 0 0 Z M1 11 C0.236875 11.763125 -0.52625 12.52625 -1.3125 13.3125 C-3.20833333 15.20833333 -5.10416667 17.10416667 -7 19 C-6.2575 19.4125 -5.515 19.825 -4.75 20.25 C-2.09828315 21.93745618 -0.13325986 23.70872089 2 26 C2.598125 25.236875 3.19625 24.47375 3.8125 23.6875 C5.46959332 21.6516425 7.10297674 19.8021721 9 18 C7.576875 16.824375 7.576875 16.824375 6.125 15.625 C4.32295116 14.13635096 2.65621152 12.65621152 1 11 Z " fill="#FFFFFF" transform="translate(77,0)"></path></svg>